<svg width="100%" height="100%" id="svg" viewBox="0 0 1440 370" xmlns="http://www.w3.org/2000/svg" class="transition duration-300 ease-in-out delay-150"><path d="M 0,400 L 0,100 C 120.24880382775123,114.10526315789474 240.49760765550246,128.21052631578948 325,135 C 409.50239234449754,141.78947368421052 458.2583732057416,141.26315789473682 546,123 C 633.7416267942584,104.73684210526316 760.4688995215313,68.73684210526315 867,56 C 973.5311004784687,43.26315789473685 1059.8660287081339,53.789473684210535 1152,65 C 1244.1339712918661,76.21052631578947 1342.066985645933,88.10526315789474 1440,100 L 1440,400 L 0,400 Z" stroke="none" stroke-width="0" fill="#0693e3" fill-opacity="0.53" class="transition-all duration-300 ease-in-out delay-150 path-0" transform="rotate(-180 720 200)"></path><path d="M 0,400 L 0,233 C 116.09569377990428,205.17224880382776 232.19138755980856,177.34449760765548 334,189 C 435.80861244019144,200.65550239234452 523.33014354067,251.79425837320576 619,270 C 714.66985645933,288.20574162679424 818.488038277512,273.47846889952154 911,252 C 1003.511961722488,230.52153110047848 1084.7177033492824,202.29186602870814 1171,198 C 1257.2822966507176,193.70813397129186 1348.6411483253587,213.35406698564594 1440,233 L 1440,400 L 0,400 Z" stroke="none" stroke-width="0" fill="#0693e3" fill-opacity="1" class="transition-all duration-300 ease-in-out delay-150 path-1" transform="rotate(-180 720 200)"></path></svg>
