<svg width="100%" height="100%" id="svg" viewBox="0 0 1440 590" xmlns="http://www.w3.org/2000/svg" class="transition duration-300 ease-in-out delay-150"><path d="M 0,600 L 0,150 C 95.05263157894737,163.77033492822966 190.10526315789474,177.54066985645932 293,172 C 395.89473684210526,166.45933014354068 506.63157894736844,141.60765550239233 601,139 C 695.3684210526316,136.39234449760767 773.3684210526316,156.02870813397132 865,173 C 956.6315789473684,189.97129186602868 1061.8947368421054,204.27751196172247 1160,200 C 1258.1052631578946,195.72248803827753 1349.0526315789473,172.86124401913878 1440,150 L 1440,600 L 0,600 Z" stroke="none" stroke-width="0" fill="#0693e3" fill-opacity="0.53" class="transition-all duration-300 ease-in-out delay-150 path-0"></path><path d="M 0,600 L 0,350 C 85.4354066985646,338.54545454545456 170.8708133971292,327.0909090909091 273,335 C 375.1291866028708,342.9090909090909 493.9521531100478,370.18181818181813 579,382 C 664.0478468899522,393.81818181818187 715.3205741626793,390.18181818181824 814,395 C 912.6794258373207,399.81818181818176 1058.7655502392345,413.09090909090907 1171,407 C 1283.2344497607655,400.90909090909093 1361.6172248803828,375.4545454545455 1440,350 L 1440,600 L 0,600 Z" stroke="none" stroke-width="0" fill="#0693e3" fill-opacity="1" class="transition-all duration-300 ease-in-out delay-150 path-1"></path></svg>
