<svg width="100%" height="100%" id="svg" viewBox="0 0 1440 390" xmlns="http://www.w3.org/2000/svg" class="transition duration-300 ease-in-out delay-150"><path d="M 0,400 L 0,100 C 98.76555023923447,118.39234449760767 197.53110047846894,136.78468899521533 309,121 C 420.46889952153106,105.21531100478468 544.6411483253588,55.25358851674641 627,53 C 709.3588516746412,50.74641148325359 749.9043062200959,96.20095693779905 834,119 C 918.0956937799041,141.79904306220095 1045.7416267942583,141.94258373205741 1154,135 C 1262.2583732057417,128.05741626794259 1351.129186602871,114.02870813397129 1440,100 L 1440,400 L 0,400 Z" stroke="none" stroke-width="0" fill="#0693e3" fill-opacity="0.53" class="transition-all duration-300 ease-in-out delay-150 path-0"></path><path d="M 0,400 L 0,233 C 70.6602870813397,236.19617224880383 141.3205741626794,239.39234449760767 255,235 C 368.6794258373206,230.60765550239233 525.3779904306219,218.6267942583732 624,213 C 722.6220095693781,207.3732057416268 763.1674641148326,208.10047846889955 834,214 C 904.8325358851674,219.89952153110045 1005.9521531100479,230.9712918660287 1112,235 C 1218.047846889952,239.0287081339713 1329.023923444976,236.01435406698565 1440,233 L 1440,400 L 0,400 Z" stroke="none" stroke-width="0" fill="#0693e3" fill-opacity="1" class="transition-all duration-300 ease-in-out delay-150 path-1"></path></svg>
